<?xml version="1.0" standalone="no"?>
<!DOCTYPE svg PUBLIC "-//W3C//DTD SVG 20010904//EN"
 "http://www.w3.org/TR/2001/REC-SVG-20010904/DTD/svg10.dtd">
<svg version="1.0" xmlns="http://www.w3.org/2000/svg"
 width="260.000000pt" height="260.000000pt" viewBox="0 0 260.000000 260.000000"
 preserveAspectRatio="xMidYMid meet">
<metadata>
Created by potrace 1.11, written by Peter Selinger 2001-2013
</metadata>
<g transform="translate(0.000000,260.000000) scale(0.100000,-0.100000)"
fill="#000000" stroke="none">
<path d="M1608 1593 c-3 -695 -6 -783 -21 -828 -37 -112 -117 -195 -222 -232
-73 -26 -222 -23 -297 6 -55 21 -58 24 -73 73 -8 28 -18 72 -21 99 -6 44 -9
49 -31 49 -22 0 -24 -3 -18 -33 4 -17 18 -57 31 -87 l24 -55 -40 43 c-43 47
-70 117 -79 202 l-6 55 -135 0 -135 0 3 -55 c9 -155 57 -266 156 -366 124
-124 249 -168 486 -169 125 0 155 3 220 23 211 66 345 199 407 402 15 49 17
143 20 853 l4 797 -135 0 -135 0 -3 -777z"/>
<path d="M1940 1511 c0 -815 -1 -827 -66 -961 -48 -97 -151 -201 -245 -247
-112 -55 -176 -68 -344 -68 -170 0 -237 13 -348 69 -80 41 -79 32 4 -23 100
-67 198 -93 371 -99 114 -3 163 -1 222 12 107 24 206 77 286 152 78 74 122
150 150 260 19 74 20 113 20 856 l0 778 -25 0 -25 0 0 -729z"/>
</g>
</svg>
